<?xml version="1.0" encoding="iso-8859-1"?>
<!-- Uploaded to: SVG Repo, www.svgrepo.com, Generator: SVG Repo Mixer Tools -->
<svg height="800px" width="800px" version="1.1" id="Layer_1" xmlns="http://www.w3.org/2000/svg" xmlns:xlink="http://www.w3.org/1999/xlink" 
	 viewBox="0 0 504.123 504.123" xml:space="preserve">
<g>
	<path style="fill:#363B3F;" d="M241.073,203.768c10.027,11.28,3.663,33.304-14.218,49.223
		c-17.881,15.896-114.018,85.024-124.062,73.767c-10.012-11.296,69.892-98.714,87.773-114.609
		C208.431,196.254,231.046,192.496,241.073,203.768z"/>
	<path style="fill:#363B3F;" d="M263.05,203.768c-10.027,11.28-3.663,33.304,14.218,49.223
		c17.881,15.896,114.018,85.024,124.062,73.767c10.012-11.296-69.892-98.714-87.773-114.609
		C295.692,196.254,273.077,192.496,263.05,203.768z"/>
</g>
<g>
	<path style="fill:#AA0909;" d="M346.569,361.913c0,19.503-15.817,124.668-35.336,124.668c-19.495,0-35.304-105.173-35.304-124.668
		c0-19.495,15.817-35.32,35.304-35.32C330.752,326.593,346.569,342.418,346.569,361.913z"/>
	<path style="fill:#AA0909;" d="M228.218,361.913c0,19.503-15.817,124.668-35.336,124.668c-19.495,0-35.304-105.173-35.304-124.668
		c0-19.495,15.817-35.32,35.304-35.32C212.401,326.593,228.218,342.418,228.218,361.913z"/>
</g>
<path style="fill:#CE1111;" d="M351.705,315.242c0,126.33-44.599,84.259-99.643,84.259c-55.028,0-99.643,42.071-99.643-84.259
	c0-72.231,44.631-130.781,99.643-130.781C307.09,184.47,351.705,243.019,351.705,315.242z"/>
<path style="fill:#EAC00F;" d="M232.629,487.219c0,14.935-17.802,16.904-39.739,16.904s-39.739-1.961-39.739-16.904
	c0-14.943,17.802-35.509,39.739-35.509S232.629,472.277,232.629,487.219z"/>
<path style="fill:#BF9C0A;" d="M232.629,487.219c0,14.935-17.802,16.904-39.739,16.904s-39.739-1.961-39.739-16.904"/>
<path style="fill:#EAC00F;" d="M350.988,487.219c0,14.935-17.802,16.904-39.739,16.904s-39.739-1.961-39.739-16.904
	c0-14.943,17.802-35.509,39.739-35.509S350.988,472.277,350.988,487.219z"/>
<path style="fill:#BF9C0A;" d="M350.988,487.219c0,14.935-17.802,16.904-39.739,16.904s-39.739-1.961-39.739-16.904"/>
<path style="fill:#AA0909;" d="M173.088,235.733c21.835,11.059,49.191,16.683,78.99,16.683c29.783,0,57.139-5.624,78.966-16.683
	c-18.211-31.114-46.773-51.263-78.982-51.263C219.861,184.47,191.291,204.611,173.088,235.733z"/>
<path style="fill:#FFD31A;" d="M381.015,124.258c0,63.008-57.738,94.681-128.937,94.681c-71.215,0-128.969-31.673-128.969-94.681
	C123.108,61.235,180.862,0,252.077,0C323.277,0,381.015,61.235,381.015,124.258z"/>
<path style="fill:#EAC00F;" d="M381.015,124.258c0,63.008-57.738,94.681-128.937,94.681c-71.215,0-128.969-31.673-128.969-94.681
	c0-63.023,57.754-94.066,128.969-94.066C323.277,30.192,381.015,61.235,381.015,124.258z"/>
<path style="fill:#BF9C0A;" d="M381.015,124.258c0,63.008-57.738,94.681-128.937,94.681c-71.215,0-128.969-31.673-128.969-94.681"/>
<path style="fill:#363B3F;" d="M358.4,128.67c0,8.696-7.058,15.754-15.754,15.754H161.477c-8.696,0-15.754-7.058-15.754-15.754
	v-13.139c0-8.696,7.058-15.754,15.754-15.754h181.169c8.696,0,15.754,7.058,15.754,15.754V128.67z"/>
<path style="fill:#191E21;" d="M145.723,124.258v4.411c0,8.696,7.058,15.754,15.754,15.754h181.169
	c8.696,0,15.754-7.058,15.754-15.754v-4.411H145.723z"/>
<path style="fill:#FF9C9C;" d="M171.638,128.331c0,2.725-2.206,4.923-4.923,4.923l0,0c-2.718,0-4.923-2.198-4.923-4.923v-12.477
	c0-2.71,2.206-4.923,4.923-4.923l0,0c2.718,0,4.923,2.213,4.923,4.923V128.331z"/>
<path style="fill:#FF5555;" d="M188.707,128.331c0,2.725-2.206,4.923-4.923,4.923l0,0c-2.725,0-4.923-2.198-4.923-4.923v-12.477
	c0-2.71,2.198-4.923,4.923-4.923l0,0c2.718,0,4.923,2.213,4.923,4.923V128.331z"/>
<path style="fill:#FF3E3E;" d="M205.777,128.331c0,2.725-2.206,4.923-4.931,4.923l0,0c-2.71,0-4.915-2.198-4.915-4.923v-12.477
	c0-2.71,2.206-4.923,4.915-4.923l0,0c2.725,0,4.931,2.213,4.931,4.923V128.331z"/>
<path style="fill:#EF2929;" d="M222.846,128.331c0,2.725-2.206,4.923-4.923,4.923l0,0c-2.725,0-4.923-2.198-4.923-4.923v-12.477
	c0-2.71,2.198-4.923,4.923-4.923l0,0c2.718,0,4.923,2.213,4.923,4.923V128.331z"/>
<path style="fill:#EA1818;" d="M239.915,128.331c0,2.725-2.206,4.923-4.923,4.923l0,0c-2.718,0-4.923-2.198-4.923-4.923v-12.477
	c0-2.71,2.206-4.923,4.923-4.923l0,0c2.718,0,4.923,2.213,4.923,4.923V128.331z"/>
<path style="fill:#DB1F1F;" d="M256.985,128.331c0,2.725-2.206,4.923-4.923,4.923l0,0c-2.718,0-4.923-2.198-4.923-4.923v-12.477
	c0-2.71,2.206-4.923,4.923-4.923l0,0c2.718,0,4.923,2.213,4.923,4.923V128.331z"/>
<path style="fill:#CE1111;" d="M274.054,128.331c0,2.725-2.206,4.923-4.931,4.923l0,0c-2.71,0-4.915-2.198-4.915-4.923v-12.477
	c0-2.71,2.206-4.923,4.915-4.923l0,0c2.725,0,4.931,2.213,4.931,4.923V128.331z"/>
<path style="fill:#A01717;" d="M291.123,128.331c0,2.725-2.206,4.923-4.923,4.923l0,0c-2.718,0-4.923-2.198-4.923-4.923v-12.477
	c0-2.71,2.206-4.923,4.923-4.923l0,0c2.718,0,4.923,2.213,4.923,4.923V128.331z"/>
<path style="fill:#6B1C1C;" d="M308.192,128.331c0,2.725-2.206,4.923-4.923,4.923l0,0c-2.718,0-4.923-2.198-4.923-4.923v-12.477
	c0-2.71,2.206-4.923,4.923-4.923l0,0c2.718,0,4.923,2.213,4.923,4.923V128.331z"/>
<path style="fill:#5E1313;" d="M325.262,128.331c0,2.725-2.206,4.923-4.923,4.923l0,0c-2.718,0-4.923-2.198-4.923-4.923v-12.477
	c0-2.71,2.206-4.923,4.923-4.923l0,0c2.718,0,4.923,2.213,4.923,4.923V128.331z"/>
<path style="fill:#440C0C;" d="M342.331,128.331c0,2.725-2.206,4.923-4.931,4.923l0,0c-2.71,0-4.915-2.198-4.915-4.923v-12.477
	c0-2.71,2.206-4.923,4.915-4.923l0,0c2.725,0,4.931,2.213,4.931,4.923V128.331z"/>
<path style="fill:#BF9C0A;" d="M154.419,357.085c-0.559,4.443,0.811,9.09,4.214,12.509l82.802,45.198
	c5.876,5.868,15.384,5.868,21.26,0l82.786-45.198c3.434-3.419,4.781-8.058,4.23-12.509H154.419z"/>
<g>
	<path style="fill:#EAC00F;" d="M262.695,397.068l81.109-39.983h-191.37l89.001,39.983
		C247.304,402.936,256.819,402.936,262.695,397.068z"/>
	<polygon style="fill:#EAC00F;" points="249.604,259.608 213.165,296.038 241.727,296.038 224.981,330.996 290.958,290.131 
		256.488,290.131 287.019,259.608 	"/>
	<path style="fill:#EAC00F;" d="M193.969,234.504c0,10.602-8.602,12.304-19.204,12.304c-10.602,0-19.204-1.709-19.204-12.304
		s8.602-19.204,19.204-19.204C185.368,215.3,193.969,223.902,193.969,234.504z"/>
</g>
<path style="fill:#BF9C0A;" d="M193.969,234.504c0,10.602-8.602,12.304-19.204,12.304c-10.602,0-19.204-1.709-19.204-12.304
	s8.602-1.481,19.204-1.481C185.368,233.023,193.969,223.902,193.969,234.504z"/>
<path style="fill:#EAC00F;" d="M310.154,234.504c0,10.602,8.602,12.304,19.204,12.304c10.602,0,19.204-1.709,19.204-12.304
	S339.96,215.3,329.358,215.3C318.755,215.3,310.154,223.902,310.154,234.504z"/>
<g>
	<path style="fill:#BF9C0A;" d="M310.154,234.504c0,10.602,8.602,12.304,19.204,12.304c10.602,0,19.204-1.709,19.204-12.304
		s-8.602-1.481-19.204-1.481C318.755,233.023,310.154,223.902,310.154,234.504z"/>
	<circle style="fill:#BF9C0A;" cx="193.3" cy="260.592" r="5.254"/>
	<circle style="fill:#BF9C0A;" cx="193.3" cy="281.6" r="5.254"/>
	<circle style="fill:#BF9C0A;" cx="193.3" cy="302.608" r="5.254"/>
	<circle style="fill:#BF9C0A;" cx="193.3" cy="323.623" r="5.254"/>
	<circle style="fill:#BF9C0A;" cx="310.808" cy="260.592" r="5.254"/>
	<circle style="fill:#BF9C0A;" cx="310.808" cy="281.6" r="5.254"/>
	<circle style="fill:#BF9C0A;" cx="310.808" cy="302.608" r="5.254"/>
	<circle style="fill:#BF9C0A;" cx="310.808" cy="323.623" r="5.254"/>
</g>
</svg>