<svg width="547" height="31" viewBox="0 0 547 31" fill="none" xmlns="http://www.w3.org/2000/svg">
<path d="M2 20.7555C7.11831 14.0377 9.48556 5.75552 18.3333 5.75552C29.326 5.75552 40.8335 7.04851 51.3889 10.3111C66.7475 15.0583 82.0737 26.4676 98.6667 26.3111C109.713 26.2069 120.347 20.0627 129.444 14.4222C141.139 7.17182 153.898 4.38758 167.444 2.75552C182.843 0.900257 198.102 2.46409 212.778 7.42219C225.207 11.6213 236.794 15.6024 249.889 16.8111C266.044 18.3023 280.306 20.5558 296.556 17.2C304.463 15.5669 311.602 11.7669 319.333 9.5333C340.251 3.49029 364.893 -1.10865 386.111 5.0333C409.248 11.7309 428.629 33.4904 454.222 27.5333C464.873 25.0543 472.682 18.8838 482.444 14.7C501.457 6.55186 524.711 7.75552 545 7.75552" stroke="black" stroke-width="3" stroke-linecap="round"/>
</svg>
